<?xml version="1.0" encoding="UTF-8"?>
<svg version="1.1" xmlns="http://www.w3.org/2000/svg" width="256" height="256">
<path d="M0 0 C0.70176361 0.00087616 1.40352722 0.00175232 2.1265564 0.00265503 C33.19548765 0.13012953 60.63361613 10.59907599 84.5 30.375 C85.73169922 31.37660156 85.73169922 31.37660156 86.98828125 32.3984375 C92.94706501 37.44127696 97.74629203 43.2036684 102.5 49.375 C103.180625 50.23996094 103.86125 51.10492188 104.5625 51.99609375 C114.88120406 65.55954655 120.82311797 80.10049419 125.5 96.375 C125.86351562 97.62023437 126.22703125 98.86546875 126.6015625 100.1484375 C134.11427433 131.95459131 127.58650674 167.88797115 110.890625 195.65234375 C107.18023264 201.56290679 102.94808079 207.00687644 98.5 212.375 C97.83226562 213.19613281 97.16453125 214.01726562 96.4765625 214.86328125 C91.43290365 220.82303323 85.66883078 225.61667323 79.5 230.375 C78.64664063 231.055625 77.79328125 231.73625 76.9140625 232.4375 C49.53605438 253.48485759 15.11522203 259.32650708 -18.58447266 256.07763672 C-42.88262649 252.86926133 -64.80215425 241.86822171 -83.5 226.375 C-84.32113281 225.70726562 -85.14226562 225.03953125 -85.98828125 224.3515625 C-91.94803323 219.30790365 -96.74167323 213.54383078 -101.5 207.375 C-102.180625 206.52164063 -102.86125 205.66828125 -103.5625 204.7890625 C-124.60985759 177.41105438 -130.45150708 142.99022203 -127.20263672 109.29052734 C-123.99889799 85.02748858 -113.02180157 63.02084087 -97.5 44.375 C-96.75878906 43.48039062 -96.01757812 42.58578125 -95.25390625 41.6640625 C-71.50691154 14.14971925 -35.86466449 -0.10988241 0 0 Z " fill="#0060E5" transform="translate(127.5,-0.375)"/>
<path d="M0 0 C3.89071936 1.94535968 5.94281929 3.68518337 8.984375 6.71875 C9.91894531 7.65074219 10.85351562 8.58273438 11.81640625 9.54296875 C12.2973877 10.02813965 12.77836914 10.51331055 13.27392578 11.01318359 C14.75204848 12.50206339 16.24059911 13.97991651 17.73046875 15.45703125 C18.65988281 16.38902344 19.58929688 17.32101563 20.546875 18.28125 C21.40120117 19.13783203 22.25552734 19.99441406 23.13574219 20.87695312 C25 23 25 23 25 25 C25.66 25 26.32 25 27 25 C28.37184143 26.42027283 28.37184143 26.42027283 29.99438477 28.41381836 C33.51893846 32.55672677 37.33660249 36.20652156 41.34910583 39.87245178 C44.73594513 42.96977767 48.06750127 46.12360954 51.39443111 49.28488255 C53.90664556 51.66618161 56.43550168 54.02207025 59.01293945 56.33276367 C76.99346198 72.50256289 76.99346198 72.50256289 78.36791992 82.17041016 C78.6299798 87.90424856 77.99748337 93.36421571 77 99 C76.73097723 100.82947959 76.46432038 102.65930886 76.20019531 104.48950195 C72.68630256 127.97987203 62.02162268 148.87129901 47 167 C46.33226562 167.82113281 45.66453125 168.64226562 44.9765625 169.48828125 C39.93290365 175.44803323 34.16883078 180.24167323 28 185 C27.14664063 185.680625 26.29328125 186.36125 25.4140625 187.0625 C11.25524919 197.94735348 -14.54600303 212.01408935 -33 210 C-35.30964661 208.29162598 -35.30964661 208.29162598 -37.69848633 205.86914062 C-38.59904251 204.96820679 -39.49959869 204.06727295 -40.42744446 203.13903809 C-41.39591102 202.14503932 -42.36410017 201.15077021 -43.33203125 200.15625 C-44.33270064 199.14625226 -45.33448189 198.137355 -46.33732605 197.1295166 C-48.97063476 194.47713995 -51.58858285 191.81009238 -54.20361328 189.13970947 C-56.87597573 186.41615039 -59.56259314 183.70673455 -62.24804688 180.99609375 C-67.51275303 175.67780358 -72.76131214 170.34393415 -78 165 C-74.36481689 163.7882723 -73.39251649 164.654422 -70.0546875 166.1640625 C-56.97532725 171.48532313 -41.17610167 170.1525796 -28.38671875 164.93359375 C-15.45199321 158.98636789 -8.71672386 149.47487621 -3.80859375 136.359375 C-1.25796166 128.91695094 -0.53612498 121.86316633 0 114 C-7.26 114 -14.52 114 -22 114 C-22 116.97 -22 119.94 -22 123 C-23.69076268 131.2946828 -26.77978946 138.30848452 -33.80078125 143.2734375 C-39.79198274 146.89125082 -44.95111184 147.22918029 -51.75 147.3125 C-52.5234375 147.34150391 -53.296875 147.37050781 -54.09375 147.40039062 C-61.33554875 147.47936997 -67.38674438 145.09621503 -72.6875 140.0625 C-81.78435483 129.89678595 -81.71779626 117.5387495 -81.55859375 104.73046875 C-81.55433174 102.997018 -81.55201374 101.26356151 -81.55152893 99.53010559 C-81.54540668 95.92190124 -81.52291095 92.31432822 -81.48706055 88.70629883 C-81.44162165 84.098897 -81.42702236 79.49206096 -81.42332363 74.88445568 C-81.41888203 71.31464653 -81.40355801 67.744954 -81.3844471 64.17519569 C-81.37561979 62.47646342 -81.36886348 60.77771899 -81.36428642 59.07896996 C-81.35517311 56.70372272 -81.33272679 54.32896877 -81.30639648 51.95385742 C-81.30573181 51.26433487 -81.30506714 50.57481232 -81.30438232 49.86439514 C-81.17771932 41.52279555 -79.21387674 32.54196446 -73.39453125 26.26953125 C-66.69648609 20.28121273 -60.98614973 18.50650023 -52.125 18.625 C-50.83529297 18.60759766 -50.83529297 18.60759766 -49.51953125 18.58984375 C-41.97362342 18.62419538 -35.19995943 20.13056915 -29.3828125 25.34375 C-22.62197914 33.44147131 -22 41.64471315 -22 52 C-14.74 52 -7.48 52 0 52 C0 34.84 0 17.68 0 0 Z " fill="#0050BF" transform="translate(179,45)"/>
<path d="M0 0 C0 -2.31 0 -4.62 0 -7 C7.26 -7 14.52 -7 22 -7 C22 10.49 22 27.98 22 46 C14.74 46 7.48 46 0 46 C-0.226875 43.73125 -0.45375 41.4625 -0.6875 39.125 C-1.64556993 31.46293118 -3.11666448 24.38404952 -9.1875 19.09375 C-18.38017984 12.68306537 -29.10698191 12.75068648 -40 14 C-47.07825596 16.30187186 -51.3248551 20.68334471 -55 27 C-57.91117479 32.96790832 -58.15286339 39.18356116 -58.19287109 45.72680664 C-58.20104858 46.47733307 -58.20922607 47.2278595 -58.21765137 48.00112915 C-58.24234316 50.4707971 -58.25898301 52.94040804 -58.2734375 55.41015625 C-58.27876118 56.26000029 -58.28408485 57.10984432 -58.28956985 57.98544121 C-58.3162361 62.48727386 -58.33562836 66.98907946 -58.35009766 71.4909668 C-58.36340514 75.1930428 -58.39120796 78.89456348 -58.43212891 82.59643555 C-58.48178546 87.09031935 -58.50625863 91.58370208 -58.51332474 96.07784843 C-58.5199832 97.77809571 -58.53506169 99.47833419 -58.55921555 101.17842293 C-58.72097231 113.25635194 -58.14355006 124.62381202 -49.625 134.125 C-43.91480395 139.55390561 -37.58639791 140.48928706 -30.0625 140.375 C-28.92264648 140.39240234 -28.92264648 140.39240234 -27.75976562 140.41015625 C-20.86150129 140.37481075 -15.54003884 138.70964153 -9.75 134.8125 C-2.46485719 127.36178577 -1.12181659 118.0963493 0 108 C7.26 108 14.52 108 22 108 C22.75120442 123.39969064 18.50094694 137.15103037 8.8125 149.25 C0.38687371 158.30801325 -11.25804515 163.49714419 -23.53125 164.203125 C-39.93779264 164.39690306 -53.30633519 161.30096954 -65.8125 149.9375 C-78.90892307 135.9616438 -80.46714281 118.27717544 -80.36328125 100.09375 C-80.36276123 98.27876791 -80.3632844 96.46378525 -80.36479187 94.64880371 C-80.36470267 90.86327597 -80.35438074 87.07796349 -80.33618164 83.29248047 C-80.31349666 78.4713617 -80.31295622 73.65055659 -80.31969929 68.82939911 C-80.32306122 65.08702876 -80.31636755 61.34472825 -80.30657005 57.60237122 C-80.30275603 55.82599759 -80.30155383 54.04961614 -80.3031559 52.27323914 C-80.30692063 27.31560511 -80.30692063 27.31560511 -74.6875 16.625 C-74.11386719 15.50351563 -73.54023437 14.38203125 -72.94921875 13.2265625 C-66.37356412 2.34181155 -55.81553297 -5.12957523 -43.67578125 -8.6796875 C-27.66709611 -12.44340414 -13.48706949 -9.13345564 0 0 Z " fill="#FDFDFE" transform="translate(157,51)"/>
<path d="M0 0 C13.77927068 -0.81187192 24.58287155 2.26831031 36 10 C36 7.69 36 5.38 36 3 C43.26 3 50.52 3 58 3 C58 20.49 58 37.98 58 56 C50.74 56 43.48 56 36 56 C35.773125 53.73125 35.54625 51.4625 35.3125 49.125 C34.35443007 41.46293118 32.88333552 34.38404952 26.8125 29.09375 C20.50093052 24.69226076 15.36357207 23.84777199 7.75 23.4375 C6.63238281 23.37272461 6.63238281 23.37272461 5.4921875 23.30664062 C3.661651 23.20103275 1.83084824 23.10005799 0 23 C0 22.67 0 22.34 0 22 C2.31 22 4.62 22 7 22 C7 15.07 7 8.14 7 1 C4.69 1 2.38 1 0 1 C0 0.67 0 0.34 0 0 Z " fill="#B1B2B4" transform="translate(121,41)"/>
<path d="M0 0 C7.26 0 14.52 0 22 0 C22.75120442 15.39969064 18.50094694 29.15103037 8.8125 41.25 C2.40435065 48.1391142 -5.89880678 52.76763185 -15 55 C-15.73863281 55.18691406 -16.47726563 55.37382812 -17.23828125 55.56640625 C-20.93345662 56.14655401 -24.58406012 56.10581521 -28.3125 56.0625 C-29.05306641 56.05798828 -29.79363281 56.05347656 -30.55664062 56.04882812 C-32.37112899 56.03712175 -34.18557534 56.01918898 -36 56 C-36 55.67 -36 55.34 -36 55 C-33.69 55 -31.38 55 -29 55 C-29 48.07 -29 41.14 -29 34 C-31.31 34 -33.62 34 -36 34 C-36 33.67 -36 33.34 -36 33 C-35.01 32.96261719 -34.02 32.92523438 -33 32.88671875 C-22.79304437 32.41624492 -14.55171234 31.72334217 -7 24 C-2.19276908 16.48870168 -0.98042319 8.82380869 0 0 Z " fill="#B1B2B4" transform="translate(157,159)"/>
</svg>
